<?xml version="1.0" standalone="yes"?>
<svg width="512" height="512">
<path style="fill:#0599f1; stroke:none;" d="M0 0L0 512L512 512L512 280L512 208C512 193.998 513.259 178.687 510 165C513.112 162.281 512 156.89 512 153L512 123L512 0L0 0z"/>
<path style="fill:#013049; stroke:none;" d="M167 0L168 1L167 0z"/>
<path style="fill:#fefdfc; stroke:none;" d="M168 0L169 1L168 0z"/>
<path style="fill:#013049; stroke:none;" d="M169.667 0.333344L170.333 0.666656L169.667 0.333344z"/>
<path style="fill:#034f7b; stroke:none;" d="M171 0L176 1L171 0z"/>
<path style="fill:#036ba7; stroke:none;" d="M176 0L180 1L176 0M332 0L335 1L332 0z"/>
<path style="fill:#034f7b; stroke:none;" d="M335 0L340 1L335 0z"/>
<path style="fill:#036ba7; stroke:none;" d="M159 51L159 71C152.946 71 140.942 68.6937 136.318 73.3179C131.694 77.9421 134 89.9457 134 96C128.244 96 114.665 93.4973 110.603 98.3179C106.689 102.964 109 115.21 109 121C103.244 121 89.6649 118.497 85.6034 123.318C81.6888 127.964 84 140.21 84 146L64 146L64 148L86 148C86 142.523 83.5129 128.694 87.6034 124.603C91.6939 120.513 105.523 123 111 123C111 117.523 108.513 103.694 112.603 99.6034C116.694 95.5128 130.523 98 136 98C136 92.2443 133.497 78.6649 138.318 74.6034C142.964 70.6888 155.21 73 161 73L161 51L159 51z"/>
<path style="fill:#034f7b; stroke:none;" d="M161 51L161 71C163.087 66.0273 163.087 55.9727 161 51z"/>
<path style="fill:#013049; stroke:none;" d="M162 51L162 71C164.087 66.0273 164.087 55.9727 162 51z"/>
<path style="fill:#020202; stroke:none;" d="M163 51C163 56.6051 164.698 65.5276 161.721 70.4815C157.438 77.6111 145.015 75 138 75C138 82.2999 140.923 96.5001 131.816 99.49C127.257 100.987 117.256 97.5269 114.028 101.603C109.664 107.113 117.189 119.63 110.682 123.972C104.938 127.805 94.9852 121.765 89.6034 126.028C85.5269 129.256 88.9865 139.257 87.49 143.816C84.5596 152.742 71.1614 150 64 150L64 347C69.8775 347 84.5242 344.364 87.3966 351.133C89.7126 356.592 85.2704 365.653 89.0278 370.397C92.7966 375.155 104.601 370.367 109.852 372.742C115.775 375.422 113 391.519 113 397L138 397L138 422C144.338 422 157.015 419.552 161.397 425.228C165.127 430.061 163 441.163 163 447L293 447C313.074 447 336.177 450.219 355.941 446.852C364.017 445.476 357.688 430.386 361.603 425.148C365.831 419.493 378.746 422 385 422C385 415.946 382.694 403.942 387.318 399.318C391.818 394.817 403.123 397 409 397C409 390.77 406.572 378.063 411.318 373.318C416.063 368.572 428.77 371 435 371C435 364.902 432.619 352.737 438.148 348.603C443.386 344.688 458.476 351.017 459.852 342.941C463.219 323.177 460 300.074 460 280L460 150C453.826 150 438.801 152.891 435.894 145.941C433.801 140.94 437.801 129.667 433.397 126.179C428.966 122.67 416.463 125 411 125L410 100L386 100L385 75C379.031 75 366.931 77.321 362.434 72.6821C357.888 67.9939 360 57.0162 360 51L163 51z"/>
<path style="fill:#013049; stroke:none;" d="M360 52L360 71C362.02 66.187 362.02 56.813 360 52z"/>
<path style="fill:#034f7b; stroke:none;" d="M361 52C361 56.9412 358.864 68.402 362.028 72.3966C365.797 77.1551 377.601 72.3672 382.852 74.7423C388.484 77.2901 386 90.8716 386 96C387.761 91.8032 389.319 74.941 383.852 73.3179C378.369 71.69 368.066 75.814 363.742 71.3966C359.391 66.9519 363.295 57.4689 361 52z"/>
<path style="fill:#036ba7; stroke:none;" d="M362 53L362 71C363.952 66.349 363.952 57.651 362 53M363 72C369.367 74.6719 378.932 70.1904 384.682 74.0278C391.131 78.3313 383.778 90.8393 388.179 96.3966C391.012 99.973 407.058 98.8385 412 100L412 121C414.1 115.997 415.519 97.2427 408.941 95.4483C403.648 94.0042 395.078 98.8714 390.603 94.3966C386.19 89.9831 390.641 80.5155 388.397 75.1088C385.178 67.3536 369.352 71.9825 363 72z"/>
<path style="fill:#034f7b; stroke:none;" d="M136 96L138.028 77.1481C141.278 71.6587 153.558 74 159 74C154.755 72.2187 139.946 70.9453 137.028 75.3179C133.952 79.9273 136 90.6016 136 96z"/>
<path style="fill:#013049; stroke:none;" d="M139 74C144.715 76.3979 152.831 75 159 75C153.285 72.602 145.169 74 139 74M363 74C368.959 76.5005 377.564 75 384 75C378.041 72.4995 369.436 74 363 74M385 75L385 96C387.153 90.8692 387.153 80.1308 385 75M137 76L137 96C139.087 91.0273 139.087 80.9727 137 76M386 96L386 100L409 100L386 96z"/>
<path style="fill:#5a3001; stroke:none;" d="M138 122C142.525 123.899 159.038 125.254 161.397 119.852C163.95 114.004 157.993 100.616 167.019 99.1481C181.244 96.8355 197.577 99 212 99L304 99L341 99C345.94 99 353.265 97.6673 357.852 99.7423C363.484 102.29 361 115.872 361 121L363 121C363 115.861 365.507 101.452 360.682 98.3179C356.689 95.7239 349.534 97 345 97L309 97L211 97C196.01 97 178.821 94.6329 164.059 97.1481C155.616 98.5865 162.548 114.323 158.972 119.682C155.885 124.308 142.919 122 138 122z"/>
<path style="fill:#034f7b; stroke:none;" d="M111 121L113.028 101.318C116.115 96.6917 129.081 99 134 99C130.077 97.354 113.826 95.8005 111.603 100.318C109.076 105.454 111 115.324 111 121M388 98C393.959 100.5 402.564 99 409 99C403.041 96.4995 394.436 98 388 98z"/>
<path style="fill:#013049; stroke:none;" d="M87 146C89.1793 140.807 85.1715 129.462 90.3179 126.028C95.7462 122.405 107.779 128.69 111.972 123.397C115.913 118.42 111.113 108.853 113.603 103.148C116.015 97.6258 129.054 100 134 100L126 99C122.675 98.9951 116.381 97.8275 113.603 100.028C108.228 104.285 114.845 116.173 110.258 121.566C105.352 127.334 95.3175 121.651 89.3179 124.603C84.6403 126.905 87 141.493 87 146z"/>
<path style="fill:#9c4d03; stroke:none;" d="M136 146L138.028 126.318C141.321 121.383 156.675 124 162 124C162.986 118.691 160.605 104.173 165.318 101.028C168.852 98.6692 175.935 100 180 100L218 100L359 100C347.544 95.1929 327.468 99 315 99L212 99L179 99L164.318 99.6034C158.272 102.578 164.531 115.775 160.397 120.682C155.426 126.582 144.497 120.563 138.318 123.603C133.555 125.947 136 141.377 136 146z"/>
<path style="fill:#dc6702; stroke:none;" d="M162 123L295 123L336 123L355.956 123.318C365.98 125.999 357.474 140.456 362.179 146.397C366.469 151.813 378.264 144.996 383.566 149.603C389.3 154.586 383.659 164.634 386.742 170.682C389.177 175.458 404.321 173 409 173C409 168.493 411.36 153.905 406.682 151.603C401.165 148.888 391.156 154.241 386.938 148.682C382.802 143.23 385 131.466 385 125C379.243 125 367.083 127.293 362.514 123.258C357.589 118.909 360 105.945 360 100L216 100L179 100C175.269 100 167.698 98.5766 164.603 101.028C160.754 104.077 162.901 118.146 162 123z"/>
<path style="fill:#9c4d03; stroke:none;" d="M360 100L360 121C362.153 115.869 362.153 105.131 360 100z"/>
<path style="fill:#013049; stroke:none;" d="M410 100L411 125C416.343 125 431.745 122.346 434.397 128.228C436.922 133.829 431.749 144.853 437.514 148.972C442.028 152.198 453.592 150 459 150C453.041 147.5 444.436 149 438 149C436.693 143.439 438.251 129.795 434.972 125.742C431.647 121.633 417.871 124 413 124L410 100z"/>
<path style="fill:#034f7b; stroke:none;" d="M411 100L411 121C413.153 115.869 413.153 105.131 411 100z"/>
<path style="fill:#9c4d03; stroke:none;" d="M361 121C363.401 127.829 377.955 125 384 125L361 121z"/>
<path style="fill:#5a3001; stroke:none;" d="M363 122L363 124C368.301 124 380.34 121.771 384.397 125.742C388.148 129.415 386 141.087 386 146L388 146C388 140.592 390.198 129.028 386.972 124.514C383.332 119.419 368.547 122 363 122z"/>
<path style="fill:#036ba7; stroke:none;" d="M413 122L437 125L437 146C438.803 141.703 440.127 126.205 435.682 123.318C430.356 119.859 419.14 122 413 122z"/>
<path style="fill:#034f7b; stroke:none;" d="M86 146L88.0278 126.318C91.1148 121.692 104.081 124 109 124C105.077 122.354 88.8262 120.801 86.6034 125.318C84.076 130.454 86 140.324 86 146z"/>
<path style="fill:#ceb901; stroke:none;" d="M136 198C136 192.54 133.249 176.299 139.228 173.603L154 173L187 173L290 173C301.589 173 322.289 168.964 332.852 173.742C339.254 176.638 335.922 191.983 334 197L390 197C394.235 197 406.082 199.046 408.972 195.397C412.362 191.117 410 178.321 410 173C404.635 173 389.38 175.682 386.742 169.852C384.232 164.302 389.238 152.931 383.566 149.028C378.065 145.241 366.278 151.825 362.179 145.682C358.463 140.113 365.196 125.662 356.891 123.318L337 123L294 123C251.447 123 207.402 119.685 165 123.093C160.427 123.461 141.624 123.325 139.028 126.603C134.218 132.676 141.714 142.568 134.235 148.196C129.01 152.128 117.926 146.682 114.028 151.603L113 162L113 187C113.001 189.982 112.29 194.519 114.894 196.682C119.12 200.193 130.743 198 136 198z"/>
<path style="fill:#034f7b; stroke:none;" d="M413 123C418.959 125.5 427.564 124 434 124C428.041 121.5 419.436 123 413 123z"/>
<path style="fill:#797979; stroke:none;" d="M137 146L139.028 127.318C142.042 122.8 154.22 125 159 125C155.154 123.386 139.799 121.856 137.603 126.318C135.183 131.236 137 140.571 137 146z"/>
<path style="fill:#5a3001; stroke:none;" d="M135 125C135 129.973 137.149 141.644 133.397 145.397C129.644 149.149 117.973 147 113 147C119.445 149.704 129.032 148 136 148C136 141.032 137.704 131.445 135 125z"/>
<path style="fill:#9c4d03; stroke:none;" d="M385 125L385 146C387.153 140.869 387.153 130.131 385 125z"/>
<path style="fill:#034f7b; stroke:none;" d="M436 125L436 146C438.153 140.869 438.153 130.131 436 125z"/>
<path style="fill:#9c4d03; stroke:none;" d="M386 146C387.731 156.372 401.761 146.968 407.397 152.603C411.6 156.807 408.344 168.396 410 174C411.944 170.625 413.008 151.352 408.889 149.5L386 146z"/>
<path style="fill:#5a3001; stroke:none;" d="M388 147L388 149C393.301 149 405.34 146.771 409.397 150.742C411.987 153.278 410.999 158.731 411 162C411.003 170.019 416.432 191.417 409.566 197.258C405.133 201.029 394.483 199 389 199L398 200C401.53 200.001 408.457 201.3 411.397 198.972C416.037 195.297 413 175.661 413 170C413 165.059 415.251 152.492 411.397 148.858C406.869 144.589 393.817 147 388 147z"/>
<path style="fill:#036ba7; stroke:none;" d="M438 147L462 150L462 288L462 327C462 332.289 463.382 339.952 461.258 344.891C457.453 353.737 444.491 345.364 438.603 350.028C432.819 354.609 440.71 367.031 434.566 372.258C428.942 377.042 419.051 370.713 413.603 375.028C408.512 379.06 414.368 390.539 410.397 395.852C405.104 402.931 394.503 395.355 388.603 400.028C384.837 403.011 387 415.571 387 420C389.1 414.994 385.339 404.35 390.318 401.028C395.888 397.311 407.527 403.768 411.682 397.566C415.532 391.82 409.662 381.544 414.603 376.603C419.231 371.976 429.934 376.6 435.772 373.968C441.757 371.269 439 355.511 439 350C444.346 350 458.22 352.464 461.682 347.486C464.327 343.683 463 336.388 463 332L463 294L463 148L438 147z"/>
<path style="fill:#034f7b; stroke:none;" d="M64 148C69.7147 150.398 77.8308 149 84 149C78.2853 146.602 70.1692 148 64 148z"/>
<path style="fill:#9c4d03; stroke:none;" d="M137 350C137 354.871 134.633 368.647 138.742 371.972C142.795 375.251 156.439 373.693 162 375C162 379.722 159.544 394.915 164.434 397.397C168.587 399.504 176.424 398 181 398L220 398L361 398C361 392.244 358.497 378.665 363.318 374.603C367.964 370.689 380.21 373 386 373C386 367.523 383.513 353.694 387.603 349.603C391.694 345.513 405.523 348 411 348L411 248C408.299 254.436 410 264.049 410 271L410 322C410 328.186 411.895 338.131 409.397 343.852C406.041 351.537 392.052 343.713 386.603 348.028C381.31 352.221 387.595 364.254 383.972 369.682C380.282 375.212 368.505 370.404 363.059 372.603C356.227 375.362 359 390.057 359 396L223 396L184 396L167.148 395.397C159.358 391.995 167.646 377.853 162.397 372.603C157.367 367.574 147.013 373.772 141.318 369.972C134.725 365.573 142.688 352.895 137.397 347.603C132.125 342.332 120.875 349.668 115.603 344.397C112.728 341.521 114 334.694 114 331L114 294C114 262.416 115.82 229.421 112.83 198L112 165C112 161.157 110.792 154.668 113.028 151.318C116.115 146.692 129.081 149 134 149C129.803 147.239 112.941 145.681 111.318 151.148C106.832 166.258 111.278 188.417 111.961 204L112 296L112 331L112.742 345.682C114.829 349.776 132.189 348.869 137 350z"/>
<path style="fill:#034f7b; stroke:none;" d="M438 148C443.959 150.5 452.564 149 459 149C453.041 146.5 444.436 148 438 148z"/>
<path style="fill:#013049; stroke:none;" d="M64 149C69.7147 151.398 77.8308 150 84 150C78.2853 147.602 70.1692 149 64 149z"/>
<path style="fill:#797979; stroke:none;" d="M112 196C115.707 187.165 113 172.585 113 163C113 159.48 111.882 153.321 115.318 151.028C119.579 148.184 129.03 150 134 150C130.202 148.406 115.893 146.986 113.028 150.603C110.825 153.385 112 159.672 112 163L112 196z"/>
<path style="fill:#5a3001; stroke:none;" d="M110 150L110 294L110 332C110 336.534 108.724 343.689 111.318 347.682C114.452 352.507 128.861 350 134 350L134 348C128.903 348 118.756 349.947 114.434 346.972C110.821 344.486 112 337.747 112 334L112 297L111.015 193C110.71 180.582 114.795 161.428 110 150z"/>
<path style="fill:#013049; stroke:none;" d="M460 150L460 292L460 330C460 334.065 461.331 341.148 458.972 344.682C455.885 349.308 442.919 347 438 347C444.445 349.704 454.032 348 461 348L461 209L461 169C461 163.113 462.292 155.462 460 150z"/>
<path style="fill:#034f7b; stroke:none;" d="M461 150L461 346C465.807 334.544 462 314.468 462 302L462 199C462 185.223 466.306 162.645 461 150z"/>
<path style="fill:#036ba7; stroke:none;" d="M510.333 165.667L510.667 166.333L510.333 165.667z"/>
<path style="fill:#013049; stroke:none;" d="M511 165L512 166L511 165M0 166L1 167L0 166z"/>
<path style="fill:#fefdfc; stroke:none;" d="M511 166L511 169L511 166M0.333333 167.667L0.666667 168.333L0.333333 167.667z"/>
<path style="fill:#013049; stroke:none;" d="M0.333333 169.667L0.666667 170.333L0.333333 169.667M511.333 169.667L511.667 170.333L511.333 169.667z"/>
<path style="fill:#034f7b; stroke:none;" d="M0 171L0 176L0 171z"/>
<path style="fill:#4f4e4d; stroke:none;" d="M411 171L411 196C413.413 190.25 413.413 176.75 411 171z"/>
<path style="fill:#034f7b; stroke:none;" d="M511 171L511 176L511 171z"/>
<path style="fill:#e8a85a; stroke:none;" d="M137 175C156.889 170.265 181.558 174 202 174L334 174C322.306 169.093 301.73 173 289 173L183 173L150 173C145.932 173 139.848 171.741 137 175z"/>
<path style="fill:#dc6702; stroke:none;" d="M136 198C128.191 198 120.379 198.827 113 196L114 301L114 331L114.603 343.682C117.909 350.399 132.454 342.452 137.397 348.318C141.933 353.702 135.181 365.677 140.603 369.972C146.378 374.546 158.515 366.62 162.972 374.148C165.926 379.137 160.546 392.556 166.318 395.397C170.564 397.486 178.347 396 183 396L221 396L359 396C359 389.387 356.225 375.607 364.019 372.603C369.044 370.667 380.401 374.905 383.972 370.397C388.336 364.887 380.811 352.37 387.318 348.028C392.423 344.621 406.384 350.804 409.397 344.682C412.662 338.046 410 324.363 410 317L410 248C404.597 251.005 398.008 250 392 250L355 250C349.949 250 341.301 251.671 337.434 247.682C332.759 242.861 335 231.201 335 225C329.171 225 319.298 226.893 314.109 223.972C308.053 220.564 307.74 202.646 313.148 198.603C318.84 194.349 330.095 200.629 334.682 195.106C338.193 190.88 336 179.257 336 174L190 174L152 174C148.149 174 140.817 172.634 137.603 175.179C133.539 178.398 136 193.148 136 198z"/>
<path style="fill:#797979; stroke:none;" d="M410 174C410 179.142 412.263 191.53 408.397 195.397C403.684 200.109 393.903 194.855 388.318 197.603C383.973 199.741 385.432 215.737 386.148 219.941C387.564 228.254 403.301 221.588 408.682 225.179C413.613 228.469 411 243.674 411 249C412.85 244.591 414.451 224.98 408.852 223.318C403.369 221.69 393.067 225.814 388.742 221.397C386.482 219.088 387.005 214.939 387 212L388.028 200.318C391.254 195.483 405.809 198 411 198C411 190.767 412.806 180.687 410 174z"/>
<path style="fill:#036ba7; stroke:none;" d="M0 176L0 180L0 176M511 176L511 180L511 176z"/>
<path style="fill:#e8a85a; stroke:none;" d="M313 197C319.445 199.704 329.032 198 336 198C329.555 195.296 319.968 197 313 197z"/>
<path style="fill:#f2d9aa; stroke:none;" d="M336 197L337 199C331.998 199 316.331 196.433 313.028 200.603C310.955 203.221 311.999 208.879 312 212C312.001 214.873 311.187 219.905 313.742 221.972C319.222 226.406 330.169 219.376 335.397 224.603C340.449 229.656 332.614 243.936 339.434 247.397C344.442 249.938 354.449 248 360 248L409 248C401.838 244.785 392.685 246 385 246L339 246C339 240.21 341.311 227.964 337.397 223.318C333.335 218.497 319.756 221 314 221C314 216.651 311.69 204.776 314.643 201.603C317.931 198.07 328.57 200 333 200L384 200C384 205.91 381.385 220.24 386.318 224.397C390.964 228.311 403.21 226 409 226L409 246C411.5 240.041 410 231.436 410 225C403.163 225 388.909 227.912 385.742 219.981C383.526 214.431 388.182 202.012 383.258 198.028C380.379 195.698 373.478 197 370 197L336 197z"/>
<path style="fill:#e8a85a; stroke:none;" d="M384 199L387 197L384 199z"/>
<path style="fill:#f0b987; stroke:none;" d="M409 249C404.031 246.915 397.35 248 392 248L356 248L340.228 247.397C332.492 243.909 340.307 230.076 335.972 224.603C331.763 219.289 319.82 225.68 314.434 221.972C310.451 219.231 310.276 202.725 314.318 200.028C319.271 196.723 331.178 199 337 199C332.852 197.259 315.094 195.732 312.028 199.603C309.825 202.385 311 208.672 311 212L312.028 222.397C316.173 227.63 328.224 221.537 333.682 225.179C340.461 229.703 331.654 243.26 337.603 247.972C341.439 251.01 352.295 249 357 249L409 249z"/>
<path style="fill:#4f4e4d; stroke:none;" d="M387 221L389.028 201.318C392.042 196.8 404.22 199 409 199C405.154 197.386 389.799 195.856 387.603 200.318C385.076 205.454 387 215.324 387 221z"/>
<path style="fill:#a3a3a3; stroke:none;" d="M385 199L385 221C387.219 215.713 387.219 204.287 385 199z"/>
<path style="fill:#e8a85a; stroke:none;" d="M310 200L310 221C312.153 215.869 312.153 205.131 310 200z"/>
<path style="fill:#fefdfc; stroke:none;" d="M314 221C320.054 221 332.058 218.694 336.682 223.318C341.306 227.942 339 239.946 339 246L409 247L409 226C402.946 226 390.942 228.306 386.318 223.682C381.572 218.937 384 206.23 384 200L332 200C328.012 200 316.712 198.059 314.042 201.603C311.519 204.954 314 216.635 314 221z"/>
<path style="fill:#013049; stroke:none;" d="M388 200L388 222C394.201 222 405.861 219.759 410.682 224.434C415.441 229.048 413 241.859 413 248C415.137 242.906 416.27 225.236 410.852 222.028C405.635 218.939 394.935 221 389 221C389 214.564 390.5 205.959 388 200z"/>
<path style="fill:#4f4e4d; stroke:none;" d="M388 222C393.959 224.5 402.564 223 409 223C403.041 220.5 394.436 222 388 222z"/>
<path style="fill:#e8a85a; stroke:none;" d="M313 224C318.959 226.5 327.564 225 334 225C328.041 222.5 319.436 224 313 224z"/>
<path style="fill:#a3a3a3; stroke:none;" d="M388 224C393.959 226.5 402.564 225 409 225C403.041 222.5 394.436 224 388 224z"/>
<path style="fill:#e8a85a; stroke:none;" d="M335 225L335 246C337.153 240.869 337.153 230.131 335 225z"/>
<path style="fill:#a3a3a3; stroke:none;" d="M410 225L410 248C412.284 242.557 412.284 230.443 410 225z"/>
<path style="fill:#4f4e4d; stroke:none;" d="M412 225L412 246C414.153 240.869 414.153 230.131 412 225z"/>
<path style="fill:#f0b987; stroke:none;" d="M409.333 246.667L409.667 247.333L409.333 246.667z"/>
<path style="fill:#5a3001; stroke:none;" d="M412 246C406.042 278.095 411 315.341 411 348C405.49 348 392.025 345.526 387.603 349.028C383.433 352.331 386 367.998 386 373C380.523 373 366.694 370.513 362.603 374.603C358.513 378.694 361 392.523 361 398L217 398L179 398C175.004 398 167.881 399.345 164.434 396.972C159.604 393.648 162 380.177 162 375L160 375C160 380.547 157.419 395.332 162.514 398.972C165.692 401.243 172.292 400 176 400L209 400L316 400C327.672 400 349.18 404.184 359.721 399.106C365.723 396.216 363 380.555 363 375L387 375C387.691 369.533 385.722 355.485 389.603 351.603C393.583 347.624 406.69 350 412 350C415.015 326.146 413 301.049 413 277C413 267.94 415.507 254.357 412 246z"/>
<path style="fill:#e8a85a; stroke:none;" d="M338 249C344.194 251.599 353.314 250 360 250L409 250C402.806 247.401 393.686 249 387 249L338 249z"/>
<path style="fill:#013049; stroke:none;" d="M64 347C69.7894 349.429 78.229 345.576 83.4275 349.318C90.0334 354.073 82.6481 365.676 87.179 371.397C90.1055 375.092 106.887 373.799 112 375L112 396C113.821 391.661 115.37 374.221 109.852 372.434C104.285 370.63 94.0351 374.828 89.6034 370.397C84.9365 365.73 90.0016 355.882 87.3966 350.279C84.6613 344.395 69.3397 347 64 347z"/>
<path style="fill:#034f7b; stroke:none;" d="M64 348L64 350L84 349C78.2853 346.602 70.1692 348 64 348M436 371L438.028 351.318C441.115 346.692 454.081 349 459 349C455.077 347.354 438.826 345.801 436.603 350.318C434.076 355.454 436 365.324 436 371z"/>
<path style="fill:#036ba7; stroke:none;" d="M77 349C85.1487 355.582 84 360.56 84 371C87.3403 363.04 87.2654 349.122 77 349M64 350C66.8024 351.482 68.9187 351.662 72 351L64 350z"/>
<path style="fill:#034f7b; stroke:none;" d="M85 350L85 371C87.153 365.869 87.153 355.131 85 350z"/>
<path style="fill:#5a3001; stroke:none;" d="M135 350C135 355.547 132.419 370.332 137.514 373.972C142.028 377.198 153.592 375 159 375L159 373C154.087 373 142.415 375.149 138.742 371.397C134.771 367.34 137 355.301 137 350L135 350z"/>
<path style="fill:#013049; stroke:none;" d="M435 350L435 371C429.09 371 414.76 368.385 410.603 373.318C406.572 378.102 409 391.023 409 397L388 397L396 398C399.527 398.005 406.46 399.298 409.397 396.972C415.129 392.432 407.376 379.831 412.603 374.603C416.694 370.513 430.523 373 436 373C436 366.032 437.704 356.445 435 350z"/>
<path style="fill:#036ba7; stroke:none;" d="M86 371C88.2845 377.883 102.914 375 109 375C101.428 371.823 93.1768 376.182 86 371z"/>
<path style="fill:#034f7b; stroke:none;" d="M88 373C93.959 375.5 102.564 374 109 374C103.041 371.5 94.4361 373 88 373M411 396L413.028 376.318C416.115 371.692 429.081 374 434 374C430.077 372.354 413.826 370.801 411.603 375.318C409.076 380.454 411 390.324 411 396z"/>
<path style="fill:#036ba7; stroke:none;" d="M110 375C110 380.547 107.419 395.332 112.514 398.972C117.028 402.198 128.592 400 134 400C128.041 397.5 119.436 399 113 399L110 375z"/>
<path style="fill:#034f7b; stroke:none;" d="M111 375L111 396C113.153 390.869 113.153 380.131 111 375z"/>
<path style="fill:#013049; stroke:none;" d="M113 397C119.367 399.672 128.932 395.19 134.682 399.028C139.414 402.185 137 415.944 137 421C139.806 414.313 138 404.233 138 397L113 397z"/>
<path style="fill:#034f7b; stroke:none;" d="M113 398C119.161 400.585 128.055 396.424 133.682 400.179C138.305 403.264 136 416.08 136 421C137.646 417.077 139.199 400.826 134.682 398.603C129.328 395.969 118.922 398 113 398M386 421L388.028 401.318C391.115 396.692 404.081 399 409 399C405.077 397.354 388.826 395.801 386.603 400.318C384.076 405.454 386 415.324 386 421z"/>
<path style="fill:#036ba7; stroke:none;" d="M135 400L135 421C137.153 415.869 137.153 405.131 135 400z"/>
<path style="fill:#013049; stroke:none;" d="M385 400L385 422C387.219 416.713 387.219 405.287 385 400z"/>
<path style="fill:#036ba7; stroke:none;" d="M136 421C138.401 427.829 152.955 425 159 425L136 421z"/>
<path style="fill:#013049; stroke:none;" d="M138 422C143.959 424.5 152.564 423 159 423C153.041 420.5 144.436 422 138 422M363 422C369.202 424.603 378.298 423 385 423C378.798 420.397 369.702 422 363 422z"/>
<path style="fill:#034f7b; stroke:none;" d="M138 423C143.937 425.491 154.591 421.038 159.397 425.742C164.725 430.959 156.068 446.13 165.109 448.682L185 449L226 449L359 449C353.784 446.811 346.619 448 341 448L303 448L169.004 447.981C155.829 447.402 166.209 431.215 160.972 424.603C157.747 420.532 142.86 423 138 423M361 446L363.028 426.318C366.115 421.692 379.081 424 384 424C380.077 422.354 363.826 420.801 361.603 425.318C359.076 430.454 361 440.324 361 446z"/>
<path style="fill:#036ba7; stroke:none;" d="M362 446L364.028 427.318C366.967 422.913 378.361 425 383 425C379.232 423.419 364.77 421.914 362.603 426.318C360.183 431.236 362 440.571 362 446M160 425L160 445C162.087 440.027 162.087 429.973 160 425z"/>
<path style="fill:#013049; stroke:none;" d="M162 425L162 446C164.153 440.869 164.153 430.131 162 425M360 425C360 429.919 362.308 442.885 357.682 445.972C354.148 448.331 347.065 447 343 447L305 447L163 447C168.462 449.292 176.113 448 182 448L222 448L361 448C361 441.032 362.704 431.445 360 425z"/>
<path style="fill:#036ba7; stroke:none;" d="M161.333 446.667L161.667 447.333L161.333 446.667M361 446C356.672 450.056 350.593 449 345 449L309 449L163 449C174.932 454.007 196.009 450 209 450L315 450L351 450C354.347 450 362.159 451.16 361 446M329 511L334 512L329 511z"/>
</svg>
